# xmcd CD database file
#
# Track frame offsets:
#	150
#	25883
#	56690
#	88650
#	103673
#	128095
#	146968
#
# Disc length: 2207 seconds
#
# Revision: 0
# Processed by: cddbd v1.5PL3 Copyright (c) Steve Scherf et al.
# Submitted via: CDex 1.51
#
DISCID=60089d07
DTITLE=John Coltrane - Turning Point
DYEAR=1900
DGENRE=Jazz
TTITLE0=Pristine
TTITLE1=I'M Lucky (I'll BeThe One)
TTITLE2=Tippin'
TTITLE3=Midriff
TTITLE4=Turtle Walk
TTITLE5=Love And The Weather
TTITLE6=The Outer World
EXTD=
EXTT0=
EXTT1=
EXTT2=
EXTT3=
EXTT4=
EXTT5=
EXTT6=
PLAYORDER=
